<svg version="1.0" xmlns="http://www.w3.org/2000/svg"  viewBox="0 0 400 100"><path d="M386.1 1.3C373.8 7.6 381 26 394.2 22c9.5-2.8 10.4-16.8 1.3-20.6-4.2-1.7-6.3-1.7-9.4-.1zM43.1 28.1c-5.6 1.1-12.4 5.1-15.4 9.2-4.9 6.5-6 9.7-9.3 28.3l-1.6 9.2-4 .6c-6 1-9.3 3.1-11.3 7.2C-.7 87.3.2 92 4 95.9c3.6 3.6 8.8 4.6 15.5 3.1 10.1-2.2 16.9-8.2 20.6-18.1C41.6 77.1 46 56.1 46 53c0-.4 2-1 4.5-1.3 6-.9 9-3 10.9-7.7 2.5-6.4-.2-12.9-6.4-15.4-4.4-1.8-5.4-1.8-11.9-.5zM89.9 28c-11.1 1.9-21.3 9.5-26.5 19.7-2.6 5.3-2.9 6.7-2.9 15.8 0 8.9.3 10.6 2.8 15.7 10.6 21.5 39.3 27 57 10.8 3-2.8 6.5-7.3 8.2-10.7 2.7-5.2 3-6.8 3-15.3 0-8.8-.3-10.1-3.3-16.2-7.1-14.5-22.5-22.5-38.3-19.8zm14.8 22.8c9.1 6.5 7.9 21.8-2.1 26.6-7.2 3.4-15.4.9-19.3-6-6.3-10.9 1.6-24 13.8-23.1 2.7.2 5.9 1.3 7.6 2.5zM165.7 28c-11 1.9-22.3 10.6-27 20.8-1.8 3.8-2.2 6.5-2.2 14.7 0 8.9.3 10.6 2.8 15.6 3 6.2 10.3 13.6 16.3 16.7 17.8 9.1 39.7 1.6 48.6-16.6 3-6 3.3-7.5 3.3-15.7s-.3-9.7-3.3-15.7C197 33.2 181.7 25.4 165.7 28zM179 50c14.2 7.3 7.8 30.1-8.1 28.7-8.9-.8-14.5-7.7-13.7-16.7 1.1-11.3 11.8-17.1 21.8-12zM231.7 28.4c-6.5 1.8-12.6 6.4-16.2 12.1l-3 4.8-.3 23.7-.3 23.7 2.6 3.1c3.4 4 7.4 4.9 12.3 2.5 5.4-2.6 6.1-5.7 6.1-26.9.1-19.8.3-20.4 6.3-21.9 2.2-.6 3.3-.1 5.8 2.3l3 3v38.4l2.9 2.9c2.3 2.3 3.8 2.9 7.1 2.9s4.8-.6 7.1-2.9l2.9-2.9V54.8l3-3c2.5-2.4 3.6-2.9 5.8-2.3 6.2 1.5 6.2 1.6 6.2 26.4 0 12.4.5 24.6 1.1 27.1 3.7 16.3 24.1 22.6 36.3 11.2 3.6-3.4 6.5-9.7 6.6-14.1 0-3.1.1-3.3 2.8-2.6 18.7 5.1 35.3-1.9 43.4-18.3 3-6 3.3-7.5 3.3-15.7s-.3-9.7-3.2-15.6c-3.9-7.9-10.2-14-18.1-17.7-7.5-3.5-18-3.6-26.4-.3-7.1 2.7-14.6 9.7-18.4 17.1l-2.9 5.5-.3 23.2c-.3 18.9-.6 23.3-1.7 23.3s-1.4-4.9-1.7-26.8l-.3-26.9-3-4.8c-7.6-12.3-24.3-16.8-37.7-10.1l-4.8 2.3-4.9-2.4c-6-3-14.8-3.8-21.4-1.9zm120.1 29.1c2 .4 5 .9 6.6 1.2l2.8.5-4.7 4.8-4.7 4.7 1.1 5.8c.6 3.2.9 6 .7 6.2-.2.3-3-.9-6.3-2.5l-5.8-3-5.5 2.9c-3 1.5-5.8 2.8-6.1 2.9-.3 0 0-2.8.6-6.3l1.2-6.2-5.1-4.6-5.1-4.7 3.5-.5c1.9-.4 5.1-.9 7.1-1.2 3.2-.5 3.8-1.1 6.4-6.5l2.9-6.1 3.4 6c2.9 5.3 3.8 6.1 7 6.6zM383.9 30.9l-2.9 2.9v29.7c0 18.4.4 30.4 1 31.6 1.2 2.2 6.1 4.9 8.9 4.9 3.4 0 7.2-2.3 8.7-5.1 1.1-2.2 1.4-8.7 1.4-31.9V33.8l-2.9-2.9c-4.1-4.1-10.1-4.1-14.2 0z"/></svg>